<?xml version="1.0" encoding="utf-8"?>
<!-- Generator: Adobe Illustrator 12.0.0, SVG Export Plug-In . SVG Version: 6.00 Build 51448)  -->
<!DOCTYPE svg PUBLIC "-//W3C//DTD SVG 1.1//EN" "http://www.w3.org/Graphics/SVG/1.1/DTD/svg11.dtd" [
	<!ENTITY ns_svg "http://www.w3.org/2000/svg">
	<!ENTITY ns_xlink "http://www.w3.org/1999/xlink">
]>
<svg  version="1.1" id="Layer_1" xmlns="&ns_svg;" xmlns:xlink="&ns_xlink;" width="602.788" height="703.008"
	 viewBox="0 0 602.788 703.008" overflow="visible" enable-background="new 0 0 602.788 703.008" xml:space="preserve">
<g>
	<path fill-rule="evenodd" clip-rule="evenodd" fill="#FFF200" d="M114.626,0L0.001,114.625
		c-0.287,213.695,65.377,409.82,196.992,588.094h190.369v0.289h18.719c131.906-178.273,197.281-374.4,196.703-588.383L488.737,0.287
		C364.034,0.287,239.618,0,114.626,0L114.626,0z"/>
	<path fill-rule="evenodd" clip-rule="evenodd" fill="#ED1C24" d="M478.944,25.057l97.059,97.631
		c-2.016,204.77-62.496,389.375-182.016,554.109H209.089C89.569,512.063,28.802,327.457,27.073,122.111l97.344-97.344
		C243.073,24.768,360.866,25.057,478.944,25.057L478.944,25.057z"/>
	<path fill-rule="evenodd" clip-rule="evenodd" fill="#1A3281" d="M81.794,411.844c29.664,89.852,73.439,175.102,131.328,255.453
		h177.693c58.18-80.352,101.953-165.602,131.328-255.453c29.664-90.148,45.219-185.477,46.656-285.412l-92.445-91.871L128.45,34.271
		l-93.025,91.873C36.577,226.367,52.13,321.408,81.794,411.844L81.794,411.844z"/>
	<path fill-rule="evenodd" clip-rule="evenodd" fill="#FFFFFF" d="M263.81,252.576h-18.721v110.596h-1.152l-3.742,3.453V254.881
		l-36.865,21.311h-1.439v155.52h-18.432V257.76h-21.025l-0.287,0.289v168.482h-4.896V259.488l-36.576,21.023v64.801h29.953v116.93
		l-4.896,4.891V350.209h-44.352v45.502h-24.48c1.439,5.477,3.168,10.656,4.896,16.133c10.08,30.234,21.6,59.898,34.559,88.992
		h371.232c13.25-29.094,24.77-58.758,34.559-88.992c8.066-24.773,15.266-49.539,21.313-74.883h-26.781v25.344h-25.059v30.813
		h-46.078v-51.549h-21.023v56.447h-5.473v-71.424h-38.305v53.283h-27.07v-72.291h-24.195v19.584h-29.949l-0.865,97.348H263.81
		V252.576L263.81,252.576z M119.233,506.883c1.152,2.875,2.592,5.469,4.031,8.352H480.96c1.441-2.883,2.594-5.477,4.035-8.352
		H119.233L119.233,506.883z M126.146,521.281c2.016,4.32,4.031,8.352,6.049,12.672h339.84c2.016-4.32,4.031-8.352,6.047-12.672
		H126.146L126.146,521.281z M135.362,540c4.031,8.063,8.352,16.414,12.959,24.477h307.584c4.32-8.063,8.93-16.414,12.961-24.477
		H135.362L135.362,540z M151.489,570.531c5.76,10.078,11.232,19.867,17.279,29.664h266.688c5.762-9.797,11.52-19.586,16.992-29.664
		H151.489L151.489,570.531z M172.513,606.242c5.76,9.5,11.809,19.008,18.145,28.508h222.912c6.047-9.5,12.098-19.008,18.145-28.508
		H172.513L172.513,606.242z M194.69,640.797c6.047,8.93,12.096,17.859,18.432,26.5h177.693c6.34-8.641,12.676-17.57,18.723-26.5
		H194.69L194.69,640.797z M503.136,343.873L501.12,324l-4.32-14.688l-7.199-8.928l-6.336-41.76l-6.047,42.623l-7.199,10.656
		l-4.031,11.809l-1.152,22.176l-4.32,5.184v35.139h26.207v-27.938h22.75v-11.232L503.136,343.873L503.136,343.873z"/>
	<path fill-rule="evenodd" clip-rule="evenodd" fill="#FFFFFF" d="M399.456,159.264h-14.398v-9.504h16.703v-3.744h-20.445v30.816
		h3.742v-14.111h14.398V159.264L399.456,159.264z M207.362,192.096v30.529h23.039v-3.457h-19.008v-10.367h16.992v-3.457h-16.992
		v-9.504h18.145v-3.744H207.362L207.362,192.096z M197.282,192.096h-4.033v24.193l-16.127-24.193h-4.033v30.529h3.744v-23.904
		l16.416,23.904h4.033V192.096L197.282,192.096z M247.394,146.016h-3.744v30.816h3.744V146.016L247.394,146.016z M230.112,155.52
		l4.033-1.152c-1.152-2.592-2.305-4.895-4.607-6.334c-1.729-2.018-4.609-2.594-7.488-2.594c-3.168,0-5.473,0.576-7.488,1.729
		c-2.305,1.439-4.031,3.168-5.473,5.76c-1.152,2.305-1.727,4.896-1.727,8.352c0,2.594,0.574,5.762,1.727,8.064
		c0.865,2.592,2.592,4.32,4.609,6.049c2.303,1.152,4.895,1.727,8.352,1.727c2.879,0,5.76-0.574,8.063-2.592
		c2.018-1.439,3.744-4.031,4.32-7.486l-4.031-1.152c-0.289,2.592-1.439,4.895-3.168,6.047c-1.439,1.152-3.455,1.729-5.473,1.729
		c-2.016,0-4.031-0.287-5.471-1.152c-1.441-1.152-2.592-2.592-3.457-4.32c-0.576-2.303-1.152-4.607-1.152-6.912
		c0-2.016,0.576-3.742,0.865-5.76c0.287-2.303,2.016-3.744,3.455-4.895c1.439-1.152,3.457-2.018,6.049-1.441
		c1.729-0.576,3.744,0.289,4.896,1.441C228.386,151.775,229.249,153.217,230.112,155.52L230.112,155.52z M435.171,192.096h-5.762
		l-14.977,15.553v-15.553h-4.32v30.529h4.32v-10.08l4.898-5.473l10.941,15.553h5.473l-13.535-17.857L435.171,192.096
		L435.171,192.096z M276.194,192.096h-4.033l-4.607,19.584c-0.863,2.592-1.152,4.896-1.441,6.912
		c-0.863-3.455-1.727-7.199-2.879-10.943l-4.031-15.553h-4.896l-6.049,20.736c0,0.863-0.576,2.305-1.152,5.76
		c-0.287-2.303-0.863-4.32-1.439-6.047l-4.607-20.449h-4.32l8.352,30.529h4.32l6.336-23.041c0-1.152,0.289-2.305,0.863-3.744
		c0,0.289,0.289,1.439,1.152,3.744l6.336,23.041h3.744L276.194,192.096L276.194,192.096z M256.034,149.76h10.367v27.072h3.744
		V149.76h10.367v-3.744h-24.479V149.76L256.034,149.76z M313.921,146.016h-4.605l-6.051,9.217c-1.152,1.729-2.303,3.455-3.168,5.184
		c-1.15-1.729-2.303-3.455-3.455-4.896l-6.049-9.504h-4.895l12.096,17.568v13.248h4.031v-13.248L313.921,146.016L313.921,146.016z
		 M401.472,200.736c0-1.439-0.285-3.457-1.148-4.896c-1.152-1.152-2.305-2.303-3.457-2.592c-1.441-0.863-3.457-1.152-6.336-1.152
		l0.285,3.168c2.305,0,3.746,0.865,4.898,2.016c1.152,0.865,1.441,2.018,1.441,3.457c0,0.863-0.289,1.439-0.578,2.592
		c-0.863,0.863-1.441,1.439-2.305,2.016c-1.152,0-2.59,0.289-4.605,0.289h-8.641v-10.369h9.789l-0.285-3.168h-13.25v30.529h3.746
		v-13.537h4.895c0.863,0,1.441,0,2.305,0.289c0.289,0,1.152,0.574,1.727,1.15c0.578,0,1.152,0.865,2.016,2.018
		c0.867,0.574,1.441,2.303,3.168,3.744l3.746,6.336h5.184l-5.184-8.354c-1.152-1.439-2.305-2.879-3.457-3.744
		c-0.863-0.576-1.438-1.15-2.59-1.439c2.879-0.287,5.184-1.439,6.621-3.168C400.608,204.768,401.472,203.041,401.472,200.736
		L401.472,200.736z M334.944,192.096h-4.895l-5.473,8.928c-1.727,2.305-2.879,3.744-3.457,5.76
		c-1.152-2.016-2.305-3.742-3.168-5.184l-6.047-9.504h-4.895l11.805,17.855v12.674h4.035v-12.674L334.944,192.096L334.944,192.096z
		 M360.866,193.537c-2.305-1.152-4.609-2.018-7.488-2.018c-4.32,0-8.063,2.018-10.656,4.609c-2.594,3.168-4.32,6.912-4.32,11.807
		c0,2.592,0.863,5.184,2.016,7.488c1.152,2.881,2.879,4.609,5.184,5.76c2.016,1.441,4.609,2.305,7.777,2.305v-3.455
		c-3.168,0-5.762-1.152-7.777-3.457c-1.727-1.729-2.879-4.896-2.879-8.641c0-4.607,1.152-8.063,3.457-9.791
		c1.727-2.016,4.32-2.881,7.199-2.881c1.727,0,3.742,0.576,5.473,1.152c1.727,1.152,2.879,2.881,3.453,4.607
		c1.152,2.018,1.73,4.32,1.73,6.625c0,4.031-1.152,7.199-3.168,8.928c-2.305,2.305-4.609,3.457-7.488,3.457v3.455
		c2.59,0,4.895-0.863,7.488-2.016c2.305-1.439,3.742-3.168,5.184-5.473c1.152-2.881,2.016-5.473,2.016-8.352
		c0-3.168-0.863-5.76-2.016-8.352C365.187,196.992,363.171,194.977,360.866,193.537L360.866,193.537z M370.37,153.217
		c-1.441-2.592-3.168-4.609-5.184-5.762c-2.305-1.439-5.184-2.016-7.777-2.016c-4.609,0-8.063,1.441-10.656,4.32
		c-2.879,2.881-4.031,6.912-4.031,11.809c0,2.592,0.289,5.473,1.727,8.064c1.152,2.303,2.883,4.031,4.898,5.76
		c2.305,1.152,5.184,1.727,8.063,1.727l-0.289-3.455c-3.168,0-5.469-1.152-7.199-2.881c-2.305-2.016-3.168-5.471-3.168-8.639
		c0-4.607,1.152-8.064,3.168-10.369c2.305-2.016,4.609-3.168,7.488-2.592c2.016-0.576,3.746,0.289,5.473,1.441
		c1.441,1.15,2.59,2.303,3.742,4.318c0.578,1.729,1.152,4.033,1.152,6.336c0,4.033-0.863,7.201-3.168,9.504
		c-1.727,1.729-4.605,2.881-7.488,2.881l0.289,3.455c2.305,0,4.895-0.574,7.199-1.727s4.32-3.168,5.473-5.76
		c1.441-2.305,1.727-4.896,1.727-8.354C371.808,158.111,371.522,155.52,370.37,153.217L370.37,153.217z"/>
	<path fill-rule="evenodd" clip-rule="evenodd" fill="#FFF200" d="M523.011,167.615l-24.48,16.418l2.59,3.742l23.906-16.416
		l6.047,8.93l3.457-2.018l-14.688-21.6l-3.168,2.305L523.011,167.615L523.011,167.615z M71.425,174.816l26.209,19.871l2.592-3.455
		l-11.809-9.217l9.217-12.383l-3.168-2.305l-8.928,12.385l-8.064-6.049l10.656-14.4l-3.457-1.727L71.425,174.816L71.425,174.816z
		 M120.386,166.176l-24.768-21.313l-2.881,3.457l25.057,21.313L120.386,166.176L120.386,166.176z M120.962,119.232
		c-1.441,0.576-3.168,1.729-5.473,3.744l2.592,2.592c1.439-1.729,3.457-2.592,4.896-2.592s3.168,0.863,3.744,1.729
		c0.863,0.863,1.152,1.727,1.152,2.879c0.576,1.152,0.576,1.729-0.289,3.457c-0.287,0.574-1.439,2.016-3.168,3.742l-7.199,5.473
		l-7.201-7.775l8.064-6.912l-2.592-2.592l-10.656,9.791l21.6,24.193l3.457-2.881l-9.793-10.943l3.744-3.168
		c1.152-0.576,1.441-1.441,1.729-1.441c0.863-0.287,1.729-0.863,2.016-0.863c1.152,0,1.729,0,3.457,0
		c1.152,0.863,2.879,0.863,5.184,1.729l7.775,1.727l4.033-3.455l-10.369-2.881c-1.729-0.574-3.744-0.863-5.471-0.863
		c-0.865,0-1.729,0.289-3.168,0.863c2.303-2.879,3.168-4.895,3.455-7.199c0-2.016-0.863-4.32-2.305-5.76
		c-1.15-1.439-2.592-2.305-4.031-3.168C124.13,118.367,122.69,118.656,120.962,119.232L120.962,119.232z M156.673,95.904
		l-2.303-2.881l-18.434,14.689l20.16,25.92l19.008-15.266l-2.303-2.879l-16.129,12.385l-6.623-8.641l14.4-11.52l-2.305-2.881
		l-14.4,11.232L141.698,108L156.673,95.904L156.673,95.904z M224.642,69.121c-1.439-2.018-3.457-3.17-5.76-3.744
		c-1.441-0.865-2.881-0.865-4.896-0.576c-1.439,0-3.455,0.863-5.76,1.727l1.152,3.744c2.879-1.15,4.607-1.727,5.76-1.727
		c1.439,0,3.455,0.576,4.896,2.016c2.016,1.152,3.455,3.455,4.895,6.912c0.865,2.303,1.152,4.031,1.729,6.047
		c0,1.729-0.576,3.457-0.863,4.609c-0.289,1.15-1.152,1.727-2.305,2.592c-1.152,0.863-2.305,1.727-4.607,2.592l-6.336,2.592
		l-9.504-23.041l6.336-2.592l-1.152-3.744l-10.369,4.033l12.385,30.24l10.943-4.033c2.018-0.863,3.168-1.439,4.609-2.592
		c1.152-0.863,2.303-2.016,3.168-3.168c0.576-0.576,1.15-2.303,1.439-3.744c0.289-1.439,0.863-2.879,0.289-5.184
		c-0.289-2.016-0.578-4.32-1.729-6.625C227.81,72.863,226.657,70.561,224.642,69.121L224.642,69.121z M267.841,84.672l-0.576-3.744
		l-20.16,2.592L245.954,72l17.855-2.305l-0.576-3.744l-17.568,2.305l-1.729-9.791l19.297-2.305l-0.287-3.744l-23.617,2.881
		l4.32,32.256L267.841,84.672L267.841,84.672z M291.169,49.824c-1.152,0-2.879,0-4.896,0l-12.383,1.152l2.305,32.543l4.607-0.287
		l-1.152-13.537l-0.287-3.744l-0.865-11.807l8.352-0.576c2.018,0,3.457,0,4.32,0c1.152,0.287,1.729,1.152,2.592,1.729
		c0.576,0.863,1.152,2.016,1.441,3.455c0,2.016-0.289,3.457-1.441,4.607c-1.152,1.152-3.168,2.018-6.047,2.018l-8.352,0.574
		l0.287,3.744l8.352-0.574c4.607-0.576,7.488-1.441,9.504-3.457c1.441-2.305,2.305-4.607,2.018-7.199
		c0-2.018-0.576-3.457-1.152-4.609c-0.865-1.15-2.018-2.303-3.168-2.592C294.337,50.4,292.608,49.824,291.169,49.824L291.169,49.824
		z M323.714,51.264l-4.609-0.287l-14.398,32.256h4.609l4.031-9.504l1.727-3.457l4.031-9.504c0.863-2.016,1.441-4.32,2.016-6.047
		c0.578,1.439,1.152,3.744,2.305,6.623l2.594,9.504l-10.945-0.576l-1.727,3.457l13.824,0.576l3.453,10.08l4.898,0.287
		L323.714,51.264L323.714,51.264z M370.081,59.615c-1.152-0.863-3.457-1.439-6.047-2.303l-0.863,3.455
		c2.301,0.289,3.742,1.441,4.605,2.592c0.578,1.441,1.152,2.592,0.578,4.32c-0.289,0.865-0.578,1.729-1.441,2.592
		c-1.152,0.576-1.727,1.152-2.879,1.152c-1.73,0-3.168,0-5.184-0.576l-8.641-2.592l2.59-10.08l10.371,2.592l0.863-3.455
		l-14.113-3.744l-8.641,31.393l4.035,1.15L349.058,72l4.895,1.152c1.152,0.576,2.016,0.863,2.305,0.863
		c0.578,0.289,1.152,0.865,1.441,1.439c0.863,0.865,1.152,1.441,1.727,2.594c0.578,1.152,1.152,3.168,1.73,5.471l2.879,7.488
		l5.184,1.439l-3.457-10.08c-0.574-2.016-1.152-3.455-2.305-4.895c-0.285-0.865-1.152-1.439-2.301-2.305
		c3.453,0.287,5.758,0,8.063-1.152c1.441-1.152,2.59-3.168,3.457-5.471c0.285-1.441,0.285-3.168,0-4.896
		C372.386,62.209,371.233,60.768,370.081,59.615L370.081,59.615z M396.577,68.256l-11.809,26.496l3.746,2.016l11.809-26.496
		l10.367,4.609l1.438-3.457l-23.902-10.656l-1.441,3.457L396.577,68.256L396.577,68.256z M452.163,91.873l-4.898-3.168
		l-19.008,14.975c-1.727,1.439-3.742,2.592-4.32,3.457c0.289-1.152,0.578-2.881,1.441-5.186l6.047-23.326l-5.758-3.457
		l-17.281,27.359l3.457,2.305l14.688-23.615l-6.914,28.799l3.168,2.018l22.754-17.857l-14.402,23.041l3.457,2.303L452.163,91.873
		L452.163,91.873z M461.378,143.137l2.59-2.881l-14.973-13.248l7.199-8.352l13.535,12.385l2.305-3.168l-13.25-11.809l6.336-7.488
		l14.402,12.385l3.168-2.881l-18.145-15.553l-21.313,24.48L461.378,143.137L461.378,143.137z M490.753,162.145l7.777-30.24
		l-2.879-2.881l-24.77,21.313l3.168,3.457l18.719-17.281l-7.773,29.664l2.879,3.457l24.766-21.313l-2.59-3.457L490.753,162.145
		L490.753,162.145z"/>
	<path fill-rule="evenodd" clip-rule="evenodd" fill="#ED1C24" d="M302.69,349.057c-1.441,0-2.594,0-4.033,0
		c-32.256,0.863-61.057,10.365-86.111,28.803l27.648,27.648c18.143-12.102,38.592-18.438,61.631-19.008h4.896
		c1.152,0,2.594,0,4.031,0.57c22.176,1.156,42.047,7.781,59.617,20.453l26.207-26.5c-25.918-20.445-55.871-31.104-89.566-31.967
		h-1.441h-0.576C304.417,349.057,303.554,349.057,302.69,349.057L302.69,349.057z"/>
	<path fill-rule="evenodd" clip-rule="evenodd" fill="#ED1C24" d="M304.417,410.109h-5.76c-13.535,0.289-26.207,3.461-37.152,9.219
		c-2.016,1.148-3.455,1.727-4.896,2.883c-3.742,2.016-7.775,4.602-11.52,7.773c-2.592,1.727-4.895,4.031-7.488,6.625
		c-1.15,1.148-2.303,2.594-3.455,3.453c-4.607,4.898-8.352,10.367-11.232,15.555c-1.152,1.438-2.016,3.453-2.879,4.898
		c-5.473,11.516-8.93,24.477-8.93,38.016v5.18c0,17.859,5.186,33.984,14.689,47.813c2.592,4.031,5.76,7.773,9.215,11.516
		c0.576,1.156,1.729,2.016,2.592,2.883c2.594,2.305,5.186,4.609,8.064,6.914c3.744,3.164,7.488,5.758,11.232,8.063
		c13.535,7.484,28.512,11.805,45.215,11.805s31.68-4.32,45.504-12.094c5.184-3.172,10.656-6.914,15.555-11.523
		c1.152-1.148,2.301-2.305,3.453-3.164l-4.895-5.188c-1.152,1.445-2.305,2.305-3.457,3.461c-4.895,4.602-10.367,8.352-16.129,11.227
		c-11.52,6.625-24.477,9.508-39.453,9.508c-14.689,0-27.938-3.461-39.744-10.078c-4.033-2.016-8.064-4.609-11.232-7.781
		c-2.881-1.727-4.896-4.031-7.201-6.336c-1.15-1.148-2.303-2.305-3.455-3.742c-3.457-3.742-6.625-7.484-9.217-11.523
		c-7.488-12.383-11.232-26.492-11.807-41.758v-3.742c0.574-13.539,3.455-26.211,9.504-37.156c3.168-5.758,6.912-10.938,11.52-15.836
		c1.152-1.148,2.305-2.016,3.455-3.453c2.592-2.305,4.896-4.898,7.488-6.914c3.744-2.883,7.488-5.477,11.809-7.492
		c10.656-6.047,22.752-9.211,36-9.789c0.863,0,2.016,0,2.881,0l0,0c16.414,0,30.816,4.031,43.773,12.094
		c3.746,2.305,7.488,5.188,11.234,8.641c1.152,1.156,2.879,2.305,4.031,3.461c2.305,2.305,4.32,4.602,6.336,7.195
		c3.168,3.742,5.762,7.492,7.488,11.523c6.91,11.516,10.367,25.344,10.367,40.031c0,14.398-3.168,27.359-9.793,39.453
		c-2.016,3.742-4.605,7.781-7.773,11.523c-1.73,2.594-4.031,4.891-6.625,7.484l4.895,5.188c2.594-2.883,4.898-5.188,6.625-7.781
		c3.168-3.742,5.762-7.773,8.066-11.516c8.063-13.539,11.805-28.797,11.805-45.508c0-16.703-3.742-31.391-11.52-44.641
		c-2.016-4.313-4.895-7.773-7.773-11.516c-2.305-2.883-4.609-5.758-7.203-8.352c-0.863-0.578-2.016-1.727-2.59-2.594
		c-4.031-3.453-7.777-6.047-11.52-9.219C338.401,415.586,322.562,410.398,304.417,410.109L304.417,410.109z"/>
	<path fill-rule="evenodd" clip-rule="evenodd" fill="#FFFFFF" d="M220.034,499.969v3.742c0.574,15.266,4.318,29.375,11.807,41.758
		c2.592,4.039,5.76,7.781,9.217,11.523c1.152,1.438,2.305,2.594,3.455,3.742c2.305,2.305,4.32,4.609,7.201,6.336
		c3.168,3.172,7.199,5.766,11.232,7.781c11.807,6.617,25.055,10.078,39.744,10.078c14.977,0,27.934-2.883,39.453-9.508
		c5.762-2.875,11.234-6.625,16.129-11.227c1.152-1.156,2.305-2.016,3.457-3.461c2.594-2.594,4.895-4.891,6.625-7.484
		c3.168-3.742,5.758-7.781,7.773-11.523c6.625-12.094,9.793-25.055,9.793-39.453c0-14.688-3.457-28.516-10.367-40.031
		c-1.727-4.031-4.32-7.781-7.488-11.523c-2.016-2.594-4.031-4.891-6.336-7.195c-1.152-1.156-2.879-2.305-4.031-3.461
		c-3.746-3.453-7.488-6.336-11.234-8.641c-12.957-8.063-27.359-12.094-43.773-12.094l0,0c-0.865,0-2.018,0-2.881,0
		c-13.248,0.578-25.344,3.742-36,9.789l6.336,15.844c16.127,9.5,25.92,23.906,29.377,43.773c1.439,7.203-2.018,16.133-10.082,27.938
		l4.896,3.172c16.127-23.328,21.314-47.523,16.127-72.867c24.195,13.539,37.441,33.695,38.883,60.766
		c-2.883,32.547-17.281,49.25-43.49,50.688c-14.111-4.602-17.855-17.281-11.52-38.586l-4.896-3.172
		c-5.471,8.352-7.775,16.125-6.623,23.617c0,8.352,2.592,13.539,8.352,15.555c-10.367,2.875-20.16-1.445-29.664-13.828
		c-6.047-8.352-7.488-19.875-4.32-34.844l11.521-26.789c5.76-11.516,6.047-23.328,1.439-35.422l-6.336-15.844
		c-4.32,2.016-8.064,4.609-11.809,7.492c-2.592,2.016-4.896,4.609-7.488,6.914c-1.15,1.438-2.303,2.305-3.455,3.453
		c-4.607,4.898-8.352,10.078-11.52,15.836C223.489,473.758,220.608,486.43,220.034,499.969L220.034,499.969z"/>
	<path fill-rule="evenodd" clip-rule="evenodd" fill="#ED1C24" d="M268.706,480.383l-11.521,26.789
		c-3.168,14.969-1.727,26.492,4.32,34.844c9.504,12.383,19.297,16.703,29.664,13.828c-5.76-2.016-8.352-7.203-8.352-15.555
		c-1.152-7.492,1.152-15.266,6.623-23.617c8.064-11.805,11.521-20.734,10.082-27.938c-3.457-19.867-13.25-34.273-29.377-43.773
		C274.753,457.055,274.466,468.867,268.706,480.383L268.706,480.383z"/>
	<path fill-rule="evenodd" clip-rule="evenodd" fill="#ED1C24" d="M310.464,446.977c5.188,25.344,0,49.539-16.127,72.867
		c-6.336,21.305-2.592,33.984,11.52,38.586c26.209-1.438,40.607-18.141,43.49-50.688
		C347.905,480.672,334.659,460.516,310.464,446.977L310.464,446.977z"/>
	<path fill-rule="evenodd" clip-rule="evenodd" fill="#ED1C24" d="M229.538,413.859L202.177,386.5h-0.287
		c-2.592,2.297-5.184,5.18-8.064,7.773c-0.576,0.578-1.729,1.727-2.592,2.875l27.359,27.367c0.289-0.289,1.152-1.156,1.441-1.445
		l3.744-3.742C225.794,417.313,227.81,415.875,229.538,413.859L229.538,413.859z"/>
	<path fill-rule="evenodd" clip-rule="evenodd" fill="#ED1C24" d="M149.185,498.531v8.063c0,2.305,0.289,4.031,0.289,6.336
		c2.016,31.391,12.672,59.328,31.68,83.516l27.936-28.219c-13.535-19.297-20.447-41.188-20.447-65.953c0-0.289,0-0.289,0-0.289
		v-2.305c0.287-22.461,6.336-42.047,18.145-59.906l-27.938-28.219C159.841,437.188,150.05,465.984,149.185,498.531L149.185,498.531z
		"/>
	<path fill-rule="evenodd" clip-rule="evenodd" fill="#ED1C24" d="M417.89,400.898c-2.305-2.016-4.609-4.32-6.914-6.625
		c-1.148-1.727-2.301-2.594-3.453-3.742l-26.207,25.914c1.438,1.156,3.164,2.883,4.605,4.031c2.016,2.305,3.746,4.039,5.762,6.336
		L417.89,400.898L417.89,400.898z"/>
	<path fill-rule="evenodd" clip-rule="evenodd" fill="#ED1C24" d="M400.323,437.469c12.957,19.008,19.293,40.609,19.293,64.805
		c0,23.906-6.336,45.211-19.008,63.648l26.785,26.781c19.297-26.203,28.801-56.156,28.801-90.141
		c0-34.273-10.082-64.805-29.664-91.008L400.323,437.469L400.323,437.469z"/>
	<path fill-rule="evenodd" clip-rule="evenodd" fill="#ED1C24" d="M385.921,583.773c-1.441,1.734-2.59,2.883-4.32,4.031
		l26.207,25.922c1.152-0.578,2.305-1.727,3.168-2.875c2.594-2.305,5.188-4.898,7.488-8.07l-26.207-26.203
		C390.53,579.453,388.226,581.469,385.921,583.773L385.921,583.773z"/>
	<path fill-rule="evenodd" clip-rule="evenodd" fill="#ED1C24" d="M393.12,626.688l-0.285-1.148l-26.211-25.633
		c-18.145,11.805-39.168,17.852-62.207,17.852c-24.48,0-46.08-6.625-65.088-19.578l-27.648,28.219
		c26.209,19.586,56.736,29.664,91.01,29.664C336.96,656.063,366.913,645.984,393.12,626.688L393.12,626.688z"/>
	<path fill-rule="evenodd" clip-rule="evenodd" fill="#ED1C24" d="M222.337,583.773c-1.152-1.438-2.592-2.586-4.031-4.32
		l-28.225,27.938c1.441,1.156,2.592,2.305,3.744,3.461c2.881,2.297,5.184,4.602,7.201,6.906l27.936-27.93
		C226.657,588.094,224.642,585.789,222.337,583.773L222.337,583.773z"/>
</g>
</svg>
